<svg xmlns="http://www.w3.org/2000/svg" width="131.809" height="131.809" viewBox="0 0 131.809 131.809">
  <g id="Group_125" data-name="Group 125" transform="translate(1163 1123)">
    <g id="Group_124" data-name="Group 124" transform="translate(-1163 -1123)">
      <path id="Path_154" data-name="Path 154" d="M311.809,317.9A65.9,65.9,0,1,1,245.9,252,65.905,65.905,0,0,1,311.809,317.9Zm0,0" transform="translate(-180 -252)" fill="#fff"/>
      <path id="Path_156" data-name="Path 156" d="M302.725,326.15l-34.5-.015,30.854-30.087a5.273,5.273,0,0,0-7.363-7.55l-40.124,39.131a5.272,5.272,0,0,0,3.678,9.048l35.467.012-19.016,20.733.311-1.141a5.272,5.272,0,1,0-10.172-2.774l-5.931,21.736a5.73,5.73,0,0,0,1.343,5.1c1.691,2.088,4.642,1.5,5.087,1.388l22.132-5.824a5.273,5.273,0,1,0-2.684-10.2l-4.451,1.172,29.252-31.894a5.272,5.272,0,0,0-3.882-8.835Zm0,0" transform="translate(-212.806 -272.124)" fill="#185331"/>
    </g>
  </g>
</svg>
